<svg xmlns="http://www.w3.org/2000/svg" width="28.079" height="37" viewBox="0 0 28.079 37">
  <g id="Grupo_115" data-name="Grupo 115" transform="translate(-48.786 -672)">
    <path id="Trazado_7839" data-name="Trazado 7839" d="M30.83,48a.769.769,0,0,0,.575-.257c.55-.616,13.46-15.164,13.46-22.7a14.04,14.04,0,1,0-28.079,0c0,7.534,12.919,22.082,13.469,22.7A.769.769,0,0,0,30.83,48Zm0-35.458a12.512,12.512,0,0,1,12.494,12.5c0,6.1-9.969,18.076-12.494,21.01-2.527-2.934-12.5-14.911-12.5-21.01A12.517,12.517,0,0,1,30.83,12.542Z" transform="translate(32 661)" fill="#9a9a9a"/>
    <path id="Trazado_7840" data-name="Trazado 7840" d="M39.827,27.181a6.86,6.86,0,1,0-6.86,6.852A6.868,6.868,0,0,0,39.827,27.181Zm-12.179,0a5.319,5.319,0,1,1,5.319,5.311A5.325,5.325,0,0,1,27.648,27.181Z" transform="translate(29.864 658.864)" fill="#9a9a9a"/>
  </g>
</svg>
