<svg xmlns="http://www.w3.org/2000/svg" width="154.531" height="43.442" viewBox="0 0 154.531 43.442">
  <g id="Grupo_103" data-name="Grupo 103" transform="translate(0)">
    <g id="Grupo_36" data-name="Grupo 36">
      <g id="Grupo_106" data-name="Grupo 106">
        <g id="Grupo_104" data-name="Grupo 104" transform="translate(-0.325)">
          <path id="Trazado_2631" data-name="Trazado 2631" d="M.964.549H12.515a10.44,10.44,0,0,1,7.478,2.592,7.831,7.831,0,0,1,2.147,5.59V8.8c0,4.258-2.555,6.812-6.146,7.849l7,9.811H17.587l-6.368-9.033h-5.7v9.033H.964ZM12.182,13.4c3.258,0,5.331-1.7,5.331-4.331V8.99c0-2.777-2-4.295-5.368-4.295H5.518v8.7Z" transform="translate(-0.639 -0.364)" fill="#072c69"/>
          <path id="Trazado_2632" data-name="Trazado 2632" d="M135.384.549H154.6V4.621H139.938V11.36h12.995v4.072H139.938v6.96h14.846v4.072h-19.4Z" transform="translate(-89.781 -0.364)" fill="#072c69"/>
          <path id="Trazado_2633" data-name="Trazado 2633" d="M268.788,0h4.221l11.4,26.1H279.6l-2.629-6.257H264.715L262.05,26.1h-4.665ZM275.3,15.808l-4.48-10.366-4.443,10.366Z" transform="translate(-170.687)" fill="#072c69"/>
          <path id="Trazado_2634" data-name="Trazado 2634" d="M405.763.549h4.554V22.318h13.624v4.147H405.763Z" transform="translate(-269.085 -0.364)" fill="#072c69"/>
        </g>
        <g id="Grupo_105" data-name="Grupo 105" transform="translate(9)">
          <path id="Trazado_2618" data-name="Trazado 2618" d="M28.45,112.287v-.019a3.409,3.409,0,0,1,6.817-.019v.019a3.409,3.409,0,0,1-6.817.019m5.615,0v-.019a2.233,2.233,0,0,0-2.216-2.319,2.2,2.2,0,0,0-2.2,2.3v.019a2.225,2.225,0,0,0,2.216,2.309,2.194,2.194,0,0,0,2.2-2.291" transform="translate(-18.867 -72.216)" fill="#c6990a"/>
          <path id="Trazado_2619" data-name="Trazado 2619" d="M60.737,110.29H58.669v-1.062h5.29v1.062H61.891v5.457H60.737Z" transform="translate(-38.907 -72.436)" fill="#c6990a"/>
          <path id="Trazado_2620" data-name="Trazado 2620" d="M86.262,109.229H91.1v1.024H87.408v1.695h3.269v1.024H87.408v1.751h3.735v1.024h-4.88Z" transform="translate(-57.206 -72.436)" fill="#c6990a"/>
          <path id="Trazado_2621" data-name="Trazado 2621" d="M113.08,109.229h1.146V114.7h3.427v1.043H113.08Z" transform="translate(-74.99 -72.436)" fill="#c6990a"/>
          <path id="Trazado_2622" data-name="Trazado 2622" d="M137.19,114.613l.689-.819a3.02,3.02,0,0,0,2.058.847c.708,0,1.155-.335,1.155-.82V113.8c0-.466-.261-.717-1.472-1-1.387-.335-2.17-.745-2.17-1.946v-.019a1.994,1.994,0,0,1,2.226-1.891,3.614,3.614,0,0,1,2.366.82l-.615.866a2.963,2.963,0,0,0-1.769-.671c-.671,0-1.062.345-1.062.773v.019c0,.5.3.726,1.555,1.024,1.378.335,2.086.829,2.086,1.909v.019c0,1.22-.959,1.946-2.328,1.946a4.017,4.017,0,0,1-2.719-1.043" transform="translate(-90.979 -72.252)" fill="#c6990a"/>
          <path id="Trazado_2623" data-name="Trazado 2623" d="M183.783,114.773a2.863,2.863,0,0,1-1.993.848,1.926,1.926,0,0,1-2.133-1.862v-.019a1.954,1.954,0,0,1,1.387-1.825,2.116,2.116,0,0,1-.54-1.359v-.019a1.707,1.707,0,0,1,1.872-1.639,1.608,1.608,0,0,1,1.732,1.574v.019c0,.857-.568,1.369-1.434,1.695l1.118,1.136a9.473,9.473,0,0,0,.7-1.257l.866.456a9.7,9.7,0,0,1-.885,1.481l1.034,1.043-.857.615Zm-.652-.671-1.453-1.481a1.209,1.209,0,0,0-.866,1.081v.018a.993.993,0,0,0,1.09.95,1.8,1.8,0,0,0,1.229-.568m-.037-3.548v-.019a.7.7,0,0,0-.736-.736.748.748,0,0,0-.783.783v.019a1.381,1.381,0,0,0,.494.968c.67-.242,1.024-.549,1.024-1.015" transform="translate(-119.141 -72.216)" fill="#c6990a"/>
          <path id="Trazado_2624" data-name="Trazado 2624" d="M225.193,109.229H228.1a2.624,2.624,0,0,1,1.881.652,1.97,1.97,0,0,1,.54,1.406v.019a1.957,1.957,0,0,1-1.546,1.974l1.76,2.468h-1.36l-1.6-2.272h-1.434v2.272h-1.146Zm2.822,3.232c.819,0,1.341-.428,1.341-1.09v-.019c0-.7-.5-1.08-1.35-1.08h-1.667v2.188Z" transform="translate(-149.339 -72.436)" fill="#c6990a"/>
          <path id="Trazado_2625" data-name="Trazado 2625" d="M253.476,109.229h4.833v1.024h-3.688v1.695h3.269v1.024h-3.269v1.751h3.735v1.024h-4.88Z" transform="translate(-168.095 -72.436)" fill="#c6990a"/>
          <path id="Trazado_2626" data-name="Trazado 2626" d="M279,114.613l.689-.819a3.02,3.02,0,0,0,2.058.847c.708,0,1.155-.335,1.155-.82V113.8c0-.466-.261-.717-1.472-1-1.387-.335-2.17-.745-2.17-1.946v-.019a1.994,1.994,0,0,1,2.226-1.891,3.614,3.614,0,0,1,2.366.82l-.615.866a2.963,2.963,0,0,0-1.769-.671c-.671,0-1.062.345-1.062.773v.019c0,.5.3.726,1.555,1.024,1.378.335,2.086.829,2.086,1.909v.019c0,1.22-.959,1.946-2.328,1.946A4.017,4.017,0,0,1,279,114.613" transform="translate(-185.019 -72.252)" fill="#c6990a"/>
          <path id="Trazado_2627" data-name="Trazado 2627" d="M305.428,112.287v-.019a3.409,3.409,0,0,1,6.817-.019v.019a3.409,3.409,0,0,1-6.817.019m5.616,0v-.019a2.233,2.233,0,0,0-2.216-2.319,2.2,2.2,0,0,0-2.2,2.3v.019a2.225,2.225,0,0,0,2.216,2.309,2.194,2.194,0,0,0,2.2-2.291" transform="translate(-202.547 -72.216)" fill="#c6990a"/>
          <path id="Trazado_2628" data-name="Trazado 2628" d="M338.08,109.229h2.906a2.625,2.625,0,0,1,1.881.652,1.97,1.97,0,0,1,.54,1.406v.019a1.957,1.957,0,0,1-1.545,1.974l1.76,2.468h-1.36l-1.6-2.272h-1.434v2.272H338.08Zm2.822,3.232c.819,0,1.341-.428,1.341-1.09v-.019c0-.7-.5-1.08-1.35-1.08h-1.667v2.188Z" transform="translate(-224.201 -72.436)" fill="#c6990a"/>
          <path id="Trazado_2629" data-name="Trazado 2629" d="M366.967,110.29H364.9v-1.062h5.29v1.062h-2.068v5.457h-1.155Z" transform="translate(-241.986 -72.436)" fill="#c6990a"/>
          <path id="Trazado_2630" data-name="Trazado 2630" d="M390.778,114.613l.689-.819a3.02,3.02,0,0,0,2.058.847c.708,0,1.155-.335,1.155-.82V113.8c0-.466-.261-.717-1.472-1-1.387-.335-2.17-.745-2.17-1.946v-.019a1.994,1.994,0,0,1,2.226-1.891,3.614,3.614,0,0,1,2.366.82l-.615.866a2.964,2.964,0,0,0-1.77-.671c-.671,0-1.062.345-1.062.773v.019c0,.5.3.726,1.555,1.024,1.378.335,2.086.829,2.086,1.909v.019c0,1.22-.959,1.946-2.328,1.946a4.018,4.018,0,0,1-2.719-1.043" transform="translate(-259.148 -72.252)" fill="#c6990a"/>
          <path id="Trazado_5229" data-name="Trazado 5229" d="M4.256,109.228v2.71H1.146v-2.71H0v6.519H1.146V113h3.11v2.747H5.4v-6.519Z" transform="translate(0 -72.436)" fill="#c6990a"/>
        </g>
      </g>
    </g>
  </g>
</svg>
