<svg xmlns="http://www.w3.org/2000/svg" xmlns:xlink="http://www.w3.org/1999/xlink" width="226.587" height="63.285" viewBox="0 0 226.587 63.285">
  <defs>
    <clipPath id="clip-path">
      <rect id="Rectángulo_51" data-name="Rectángulo 51" width="225.587" height="63.285" fill="#fff"/>
    </clipPath>
  </defs>
  <g id="Grupo_95" data-name="Grupo 95" transform="translate(-1007 -4240.855)">
    <path id="Trazado_2617" data-name="Trazado 2617" d="M6.2,109.228v3.948H1.669v-3.948H0v9.5H1.669v-4H6.2v4H7.868v-9.5Z" transform="translate(1007 4185.415)" fill="#fff"/>
    <g id="Grupo_35" data-name="Grupo 35" transform="translate(1008 4240.855)" clip-path="url(#clip-path)">
      <path id="Trazado_2618" data-name="Trazado 2618" d="M28.45,113.835v-.027a4.966,4.966,0,0,1,9.93-.027v.027a4.966,4.966,0,0,1-9.93.027m8.18,0v-.027A3.253,3.253,0,0,0,33.4,110.43a3.208,3.208,0,0,0-3.2,3.351v.027a3.242,3.242,0,0,0,3.229,3.364,3.2,3.2,0,0,0,3.2-3.337" transform="translate(-14.49 -55.462)" fill="#fff"/>
      <path id="Trazado_2619" data-name="Trazado 2619" d="M61.681,110.775H58.669v-1.547h7.706v1.547H63.363v7.95H61.681Z" transform="translate(-29.88 -55.63)" fill="#fff"/>
      <path id="Trazado_2620" data-name="Trazado 2620" d="M86.262,109.229H93.3v1.492H87.931v2.469h4.762v1.492H87.931v2.551h5.44v1.492H86.262Z" transform="translate(-43.934 -55.63)" fill="#fff"/>
      <path id="Trazado_2621" data-name="Trazado 2621" d="M113.08,109.229h1.669v7.977h4.992v1.52H113.08Z" transform="translate(-57.592 -55.63)" fill="#fff"/>
      <path id="Trazado_2622" data-name="Trazado 2622" d="M137.19,117.2l1-1.193a4.4,4.4,0,0,0,3,1.234c1.031,0,1.682-.488,1.682-1.194v-.027c0-.678-.38-1.045-2.144-1.451-2.021-.488-3.161-1.085-3.161-2.835v-.028c0-1.628,1.357-2.754,3.243-2.754a5.264,5.264,0,0,1,3.446,1.194l-.9,1.262a4.316,4.316,0,0,0-2.578-.977c-.977,0-1.547.5-1.547,1.126v.027c0,.732.434,1.058,2.266,1.492,2.008.488,3.039,1.207,3.039,2.781v.027c0,1.777-1.4,2.835-3.392,2.835a5.852,5.852,0,0,1-3.961-1.52" transform="translate(-69.871 -55.489)" fill="#fff"/>
      <path id="Trazado_2623" data-name="Trazado 2623" d="M185.667,117.457a4.17,4.17,0,0,1-2.9,1.235,2.805,2.805,0,0,1-3.107-2.713v-.027a2.847,2.847,0,0,1,2.021-2.659,3.083,3.083,0,0,1-.787-1.98v-.027a2.486,2.486,0,0,1,2.727-2.387,2.343,2.343,0,0,1,2.523,2.293v.027c0,1.248-.827,1.994-2.089,2.469l1.628,1.655a13.8,13.8,0,0,0,1.018-1.832l1.262.665a14.12,14.12,0,0,1-1.289,2.157l1.506,1.519-1.248.9Zm-.95-.977-2.116-2.157a1.761,1.761,0,0,0-1.262,1.574v.026a1.446,1.446,0,0,0,1.587,1.384,2.616,2.616,0,0,0,1.791-.828m-.054-5.169v-.027a1.026,1.026,0,0,0-1.072-1.072,1.09,1.09,0,0,0-1.14,1.14v.027a2.012,2.012,0,0,0,.719,1.411c.976-.353,1.492-.8,1.492-1.479" transform="translate(-91.5 -55.462)" fill="#fff"/>
      <path id="Trazado_2624" data-name="Trazado 2624" d="M225.193,109.229h4.233a3.823,3.823,0,0,1,2.741.95,2.87,2.87,0,0,1,.787,2.048v.027a2.85,2.85,0,0,1-2.252,2.875l2.564,3.6h-1.981l-2.334-3.31h-2.089v3.31h-1.669Zm4.111,4.708c1.193,0,1.954-.624,1.954-1.587v-.028c0-1.017-.733-1.573-1.967-1.573h-2.429v3.188Z" transform="translate(-114.692 -55.631)" fill="#fff"/>
      <path id="Trazado_2625" data-name="Trazado 2625" d="M253.477,109.229h7.041v1.492h-5.372v2.469h4.762v1.492h-4.762v2.551h5.44v1.492h-7.109Z" transform="translate(-129.096 -55.63)" fill="#fff"/>
      <path id="Trazado_2626" data-name="Trazado 2626" d="M279,117.2l1-1.193a4.4,4.4,0,0,0,3,1.234c1.031,0,1.682-.488,1.682-1.194v-.027c0-.678-.38-1.045-2.144-1.451-2.021-.488-3.161-1.085-3.161-2.835v-.028c0-1.628,1.357-2.754,3.242-2.754a5.265,5.265,0,0,1,3.446,1.194l-.9,1.262a4.317,4.317,0,0,0-2.578-.977c-.977,0-1.547.5-1.547,1.126v.027c0,.732.434,1.058,2.266,1.492,2.008.488,3.039,1.207,3.039,2.781v.027c0,1.777-1.4,2.835-3.392,2.835A5.852,5.852,0,0,1,279,117.2" transform="translate(-142.094 -55.489)" fill="#fff"/>
      <path id="Trazado_2627" data-name="Trazado 2627" d="M305.428,113.835v-.027a4.966,4.966,0,0,1,9.93-.027v.027a4.966,4.966,0,0,1-9.93.027m8.18,0v-.027a3.253,3.253,0,0,0-3.229-3.378,3.208,3.208,0,0,0-3.2,3.351v.027a3.242,3.242,0,0,0,3.229,3.364,3.2,3.2,0,0,0,3.2-3.337" transform="translate(-155.555 -55.462)" fill="#fff"/>
      <path id="Trazado_2628" data-name="Trazado 2628" d="M338.08,109.229h4.233a3.823,3.823,0,0,1,2.741.95,2.869,2.869,0,0,1,.786,2.048v.027a2.85,2.85,0,0,1-2.251,2.875l2.564,3.6h-1.981l-2.334-3.31h-2.089v3.31H338.08Zm4.111,4.708c1.193,0,1.953-.624,1.953-1.587v-.028c0-1.017-.733-1.573-1.967-1.573h-2.428v3.188Z" transform="translate(-172.185 -55.631)" fill="#fff"/>
      <path id="Trazado_2629" data-name="Trazado 2629" d="M367.911,110.775H364.9v-1.547h7.706v1.547h-3.012v7.95h-1.682Z" transform="translate(-185.844 -55.63)" fill="#fff"/>
      <path id="Trazado_2630" data-name="Trazado 2630" d="M390.778,117.2l1-1.193a4.4,4.4,0,0,0,3,1.234c1.031,0,1.682-.488,1.682-1.194v-.027c0-.678-.38-1.045-2.144-1.451-2.021-.488-3.161-1.085-3.161-2.835v-.028c0-1.628,1.357-2.754,3.242-2.754a5.265,5.265,0,0,1,3.446,1.194l-.9,1.262a4.317,4.317,0,0,0-2.578-.977c-.977,0-1.547.5-1.547,1.126v.027c0,.732.434,1.058,2.266,1.492,2.008.488,3.039,1.207,3.039,2.781v.027c0,1.777-1.4,2.835-3.392,2.835a5.853,5.853,0,0,1-3.962-1.52" transform="translate(-199.025 -55.489)" fill="#fff"/>
      <path id="Trazado_2631" data-name="Trazado 2631" d="M.964.549H17.791c4.746,0,8.467,1.4,10.894,3.775a11.408,11.408,0,0,1,3.128,8.144v.108c0,6.2-3.721,9.924-8.953,11.434L33.054,38.3H25.18L15.9,25.142H7.6V38.3H.964ZM17.306,19.264c4.746,0,7.766-2.481,7.766-6.31v-.108c0-4.045-2.912-6.256-7.82-6.256H7.6V19.264Z" transform="translate(-0.491 -0.28)" fill="#fff"/>
      <path id="Trazado_2632" data-name="Trazado 2632" d="M135.384.549h27.991V6.482H142.018V16.3h18.93V22.23h-18.93V32.369h21.627V38.3H135.384Z" transform="translate(-68.952 -0.28)" fill="#fff"/>
      <path id="Trazado_2633" data-name="Trazado 2633" d="M274,0h6.148l16.611,38.022h-7.011l-3.829-9.115H268.064l-3.883,9.115h-6.8Zm9.492,23.029-6.526-15.1-6.472,15.1Z" transform="translate(-131.087)" fill="#fff"/>
      <path id="Trazado_2634" data-name="Trazado 2634" d="M405.763.549H412.4V32.261h19.847V38.3H405.763Z" transform="translate(-206.656 -0.28)" fill="#fff"/>
    </g>
  </g>
</svg>
